<svg width="30" height="24" viewBox="0 0 30 24" fill="none" xmlns="http://www.w3.org/2000/svg">
<path fill-rule="evenodd" clip-rule="evenodd" d="M0.667236 7.99219C0.667236 3.75801 4.09972 0.325523 8.3339 0.325523H21.6672C25.9014 0.325523 29.3339 3.75801 29.3339 7.99219V15.9922C29.3339 20.2264 25.9014 23.6589 21.6672 23.6589H8.3339C4.09972 23.6589 0.667236 20.2264 0.667236 15.9922V7.99219ZM7.60041 7.19479C7.15858 6.86342 6.53178 6.95297 6.20041 7.39479C5.86904 7.83662 5.95858 8.46342 6.40041 8.79479L12.8004 13.5948C14.1041 14.5726 15.8967 14.5726 17.2004 13.5948L23.6004 8.79479C24.0422 8.46342 24.1318 7.83662 23.8004 7.39479C23.469 6.95297 22.8422 6.86342 22.4004 7.19479L16.0004 11.9948C15.4078 12.4392 14.593 12.4392 14.0004 11.9948L7.60041 7.19479Z" fill="white"/>
</svg>
